<svg width="53" height="57" viewBox="0 0 53 57" fill="none" xmlns="http://www.w3.org/2000/svg">
<path d="M8.95317 7.90058H12.0787L16.2645 18.1172H16.4297L20.6155 7.90058H23.741V22H21.2902V12.3135H21.1594L17.2627 21.9587H15.4315L11.5348 12.2929H11.404V22H8.95317V7.90058ZM32.9377 15.804V22H30.4456V11.4254H32.8276V13.2223H32.9515C33.1948 12.6302 33.5826 12.1598 34.115 11.811C34.652 11.4622 35.3152 11.2877 36.1046 11.2877C36.8344 11.2877 37.47 11.4438 38.0116 11.7559C38.5578 12.068 38.98 12.5201 39.2784 13.1121C39.5813 13.7042 39.7304 14.4225 39.7258 15.267V22H37.2337V15.6525C37.2337 14.9457 37.0501 14.3926 36.6829 13.9933C36.3203 13.594 35.8178 13.3944 35.1752 13.3944C34.7392 13.3944 34.3514 13.4908 34.0117 13.6835C33.6767 13.8717 33.4128 14.1448 33.22 14.5028C33.0318 14.8608 32.9377 15.2945 32.9377 15.804ZM45.7958 22.1859C44.965 22.1859 44.2215 21.9725 43.5652 21.5456C42.9089 21.1188 42.3902 20.4992 42.0093 19.6868C41.6283 18.8744 41.4379 17.8877 41.4379 16.7265C41.4379 15.5515 41.6306 14.5602 42.0162 13.7524C42.4063 12.94 42.9318 12.3273 43.5927 11.9142C44.2536 11.4966 44.9903 11.2877 45.8026 11.2877C46.4222 11.2877 46.9317 11.3933 47.331 11.6044C47.7303 11.811 48.047 12.0611 48.2811 12.3548C48.5151 12.644 48.6964 12.9171 48.8249 13.1741H48.9282V7.90058H51.4273V22H48.9764V20.334H48.8249C48.6964 20.591 48.5105 20.8641 48.2673 21.1532C48.024 21.4378 47.7028 21.681 47.3035 21.883C46.9042 22.0849 46.4016 22.1859 45.7958 22.1859ZM46.4911 20.1412C47.0189 20.1412 47.4687 19.9989 47.8404 19.7144C48.2122 19.4252 48.4945 19.0236 48.6872 18.5096C48.88 17.9955 48.9764 17.3966 48.9764 16.7127C48.9764 16.0289 48.88 15.4345 48.6872 14.9296C48.4991 14.4248 48.2191 14.0324 47.8473 13.7524C47.4802 13.4724 47.0281 13.3324 46.4911 13.3324C45.9357 13.3324 45.4722 13.477 45.1004 13.7662C44.7287 14.0553 44.4487 14.4546 44.2605 14.9641C44.0723 15.4735 43.9783 16.0564 43.9783 16.7127C43.9783 17.3736 44.0723 17.9634 44.2605 18.482C44.4533 18.9961 44.7355 19.4023 45.1073 19.7006C45.4837 19.9943 45.9449 20.1412 46.4911 20.1412Z" fill="#121212"/>
<path d="M24.389 25.7933V27.7209H18.31V25.7933H24.389ZM19.8109 23.2598H22.303V33.1872C22.303 33.5222 22.3535 33.7793 22.4545 33.9583C22.5601 34.1327 22.6978 34.252 22.8676 34.3163C23.0374 34.3805 23.2256 34.4126 23.4321 34.4126C23.5881 34.4126 23.7304 34.4012 23.8589 34.3782C23.992 34.3553 24.093 34.3346 24.1619 34.3163L24.5818 36.2646C24.4487 36.3105 24.2582 36.361 24.0104 36.416C23.7671 36.4711 23.4688 36.5032 23.1154 36.5124C22.4912 36.5308 21.929 36.4367 21.4287 36.2301C20.9284 36.019 20.5314 35.6932 20.2377 35.2525C19.9485 34.8119 19.8063 34.2612 19.8109 33.6003V23.2598ZM42.496 36.5744C41.4358 36.5744 40.5201 36.3541 39.7491 35.9135C38.9826 35.4683 38.3928 34.8395 37.9798 34.0271C37.5667 33.2102 37.3602 32.2486 37.3602 31.1425C37.3602 30.0548 37.5667 29.1001 37.9798 28.2786C38.3974 27.4524 38.9803 26.8099 39.7284 26.3509C40.4765 25.8874 41.3555 25.6556 42.3652 25.6556C43.0169 25.6556 43.6319 25.7611 44.2102 25.9723C44.7931 26.1788 45.3072 26.5001 45.7524 26.9361C46.2021 27.3721 46.5555 27.9275 46.8126 28.6021C47.0696 29.2722 47.1981 30.0708 47.1981 30.9979V31.7621H38.5305V30.0823H44.8092C44.8046 29.605 44.7013 29.1804 44.4994 28.8087C44.2974 28.4323 44.0152 28.1363 43.6526 27.9206C43.2946 27.7049 42.8769 27.597 42.3996 27.597C41.8902 27.597 41.4427 27.7209 41.0571 27.9688C40.6716 28.212 40.371 28.5333 40.1553 28.9326C39.9441 29.3273 39.8363 29.761 39.8317 30.2338V31.7002C39.8317 32.3152 39.9441 32.843 40.169 33.2836C40.3939 33.7196 40.7083 34.0546 41.1122 34.2887C41.5161 34.5182 41.9888 34.6329 42.5304 34.6329C42.893 34.6329 43.2212 34.5825 43.5149 34.4815C43.8086 34.3759 44.0634 34.2222 44.2791 34.0202C44.4948 33.8183 44.6577 33.5681 44.7679 33.2698L47.0948 33.5314C46.948 34.1464 46.668 34.6834 46.2549 35.1424C45.8464 35.5968 45.3232 35.9502 44.6853 36.2026C44.0473 36.4504 43.3175 36.5744 42.496 36.5744Z" fill="#121212"/>
<path d="M28.805 30.1718V36.3678H26.3128V22.2684H28.7499V27.5901H28.8738C29.1216 26.9935 29.5049 26.523 30.0235 26.1788C30.5467 25.83 31.2122 25.6556 32.02 25.6556C32.7544 25.6556 33.3946 25.8093 33.9408 26.1168C34.4869 26.4243 34.9092 26.8741 35.2075 27.4662C35.5104 28.0583 35.6619 28.7811 35.6619 29.6348V36.3678H33.1697V30.0203C33.1697 29.3089 32.9861 28.7559 32.619 28.3612C32.2564 27.9619 31.7469 27.7622 31.0906 27.7622C30.65 27.7622 30.2553 27.8586 29.9065 28.0514C29.5622 28.2396 29.2915 28.5126 29.0941 28.8706C28.9013 29.2286 28.805 29.6623 28.805 30.1718Z" fill="#01626A"/>
<path d="M12.9773 35.4817V49.5811H10.7054L4.06185 39.9773H3.94481V49.5811H1.39067V35.4817H3.67631L10.313 45.0924H10.4369V35.4817H12.9773ZM18.3054 49.7945C17.6353 49.7945 17.0317 49.6752 16.4947 49.4365C15.9623 49.1933 15.5401 48.8353 15.228 48.3626C14.9205 47.8898 14.7667 47.3069 14.7667 46.6139C14.7667 46.0172 14.8769 45.5239 15.0972 45.1337C15.3175 44.7436 15.6181 44.4315 15.9991 44.1974C16.38 43.9634 16.8091 43.7867 17.2865 43.6673C17.7684 43.5434 18.2663 43.4539 18.7804 43.3988C19.4 43.3346 19.9026 43.2772 20.2881 43.2267C20.6736 43.1717 20.9536 43.089 21.128 42.9789C21.307 42.8642 21.3965 42.6875 21.3965 42.4488V42.4075C21.3965 41.8889 21.2427 41.4873 20.9352 41.2027C20.6277 40.9181 20.1848 40.7759 19.6065 40.7759C18.9961 40.7759 18.5119 40.909 18.1539 41.1752C17.8005 41.4414 17.5618 41.7558 17.4379 42.1183L15.111 41.7879C15.2945 41.1453 15.5975 40.6083 16.0197 40.1769C16.442 39.7409 16.9583 39.415 17.5687 39.1993C18.1791 38.979 18.8538 38.8689 19.5928 38.8689C20.1022 38.8689 20.6094 38.9285 21.1142 39.0479C21.6191 39.1672 22.0804 39.3645 22.498 39.6399C22.9157 39.9107 23.2507 40.2802 23.5031 40.7483C23.7602 41.2165 23.8887 41.8016 23.8887 42.5039V49.5811H21.4929V48.1285H21.4103C21.2588 48.4222 21.0454 48.6976 20.77 48.9546C20.4992 49.2071 20.1573 49.4113 19.7442 49.5673C19.3357 49.7188 18.8561 49.7945 18.3054 49.7945ZM18.9525 47.9633C19.4528 47.9633 19.8865 47.8646 20.2537 47.6672C20.6208 47.4653 20.9031 47.1991 21.1005 46.8686C21.3024 46.5382 21.4034 46.1779 21.4034 45.7878V44.5417C21.3254 44.6059 21.1923 44.6656 21.0041 44.7207C20.8205 44.7757 20.614 44.8239 20.3845 44.8652C20.155 44.9066 19.9278 44.9433 19.7029 44.9754C19.478 45.0075 19.283 45.0351 19.1177 45.058C18.746 45.1085 18.4132 45.1911 18.1195 45.3059C17.8257 45.4206 17.594 45.5812 17.4241 45.7878C17.2543 45.9897 17.1694 46.2513 17.1694 46.5726C17.1694 47.0316 17.3369 47.3781 17.672 47.6122C18.007 47.8462 18.4339 47.9633 18.9525 47.9633ZM30.428 49.5811V39.0065H32.8444V40.769H32.9546C33.1473 40.1586 33.4778 39.6881 33.9459 39.3577C34.4187 39.0226 34.958 38.8551 35.5638 38.8551C35.7015 38.8551 35.8552 38.862 36.0251 38.8757C36.1995 38.8849 36.344 38.901 36.4588 38.9239V41.2165C36.3532 41.1797 36.1857 41.1476 35.9562 41.1201C35.7313 41.088 35.5133 41.0719 35.3022 41.0719C34.8478 41.0719 34.4393 41.1706 34.0767 41.3679C33.7188 41.5607 33.4365 41.8292 33.23 42.1734C33.0234 42.5176 32.9202 42.9146 32.9202 43.3644V49.5811H30.428ZM40.5804 49.7945C39.9103 49.7945 39.3068 49.6752 38.7698 49.4365C38.2374 49.1933 37.8151 48.8353 37.503 48.3626C37.1955 47.8898 37.0418 47.3069 37.0418 46.6139C37.0418 46.0172 37.1519 45.5239 37.3722 45.1337C37.5925 44.7436 37.8931 44.4315 38.2741 44.1974C38.655 43.9634 39.0842 43.7867 39.5615 43.6673C40.0434 43.5434 40.5414 43.4539 41.0554 43.3988C41.675 43.3346 42.1776 43.2772 42.5631 43.2267C42.9486 43.1717 43.2286 43.089 43.403 42.9789C43.582 42.8642 43.6715 42.6875 43.6715 42.4488V42.4075C43.6715 41.8889 43.5178 41.4873 43.2103 41.2027C42.9027 40.9181 42.4598 40.7759 41.8816 40.7759C41.2711 40.7759 40.7869 40.909 40.4289 41.1752C40.0755 41.4414 39.8369 41.7558 39.7129 42.1183L37.386 41.7879C37.5696 41.1453 37.8725 40.6083 38.2947 40.1769C38.717 39.7409 39.2333 39.415 39.8437 39.1993C40.4542 38.979 41.1288 38.8689 41.8678 38.8689C42.3772 38.8689 42.8844 38.9285 43.3893 39.0479C43.8941 39.1672 44.3554 39.3645 44.773 39.6399C45.1907 39.9107 45.5257 40.2802 45.7782 40.7483C46.0352 41.2165 46.1637 41.8016 46.1637 42.5039V49.5811H43.7679V48.1285H43.6853C43.5338 48.4222 43.3204 48.6976 43.045 48.9546C42.7742 49.2071 42.4323 49.4113 42.0192 49.5673C41.6108 49.7188 41.1311 49.7945 40.5804 49.7945ZM41.2275 47.9633C41.7278 47.9633 42.1615 47.8646 42.5287 47.6672C42.8959 47.4653 43.1781 47.1991 43.3755 46.8686C43.5774 46.5382 43.6784 46.1779 43.6784 45.7878V44.5417C43.6004 44.6059 43.4673 44.6656 43.2791 44.7207C43.0955 44.7757 42.889 44.8239 42.6595 44.8652C42.43 44.9066 42.2028 44.9433 41.9779 44.9754C41.753 45.0075 41.558 45.0351 41.3928 45.058C41.021 45.1085 40.6882 45.1911 40.3945 45.3059C40.1008 45.4206 39.869 45.5812 39.6992 45.7878C39.5294 45.9897 39.4444 46.2513 39.4444 46.5726C39.4444 47.0316 39.612 47.3781 39.947 47.6122C40.2821 47.8462 40.7089 47.9633 41.2275 47.9633Z" fill="#121212"/>
<rect width="2.69396" height="36.5609" transform="translate(26.1641 12.7001)" fill="#01626A"/>
<circle cx="27.5735" cy="8.97998" r="2.56567" fill="#01626A" fill-opacity="0.5"/>
</svg>
